<svg width="20" height="21" viewBox="0 0 20 21" fill="none" xmlns="http://www.w3.org/2000/svg">
<path d="M11.6667 2.16666H5.00004C4.55801 2.16666 4.13409 2.34226 3.82153 2.65482C3.50897 2.96738 3.33337 3.3913 3.33337 3.83333V17.1667C3.33337 17.6087 3.50897 18.0326 3.82153 18.3452C4.13409 18.6577 4.55801 18.8333 5.00004 18.8333H15C15.4421 18.8333 15.866 18.6577 16.1786 18.3452C16.4911 18.0326 16.6667 17.6087 16.6667 17.1667V7.16666L11.6667 2.16666Z" stroke="#0A7EC7" stroke-linecap="round" stroke-linejoin="round"/>
<path d="M11.6666 2.16666V7.16666H16.6666" stroke="#0A7EC7" stroke-linecap="round" stroke-linejoin="round"/>
<path d="M13.3333 11.3333H6.66663" stroke="#0A7EC7" stroke-linecap="round" stroke-linejoin="round"/>
<path d="M13.3333 14.6667H6.66663" stroke="#0A7EC7" stroke-linecap="round" stroke-linejoin="round"/>
<path d="M8.33329 8H7.49996H6.66663" stroke="#0A7EC7" stroke-linecap="round" stroke-linejoin="round"/>
</svg>
