<svg width="14" height="14" viewBox="0 0 14 14" fill="none" xmlns="http://www.w3.org/2000/svg">
<g clip-path="url(#clip0_3_12400)">
<path d="M7.00001 12.8333C10.2217 12.8333 12.8333 10.2217 12.8333 7.00001C12.8333 3.77834 10.2217 1.16667 7.00001 1.16667C3.77834 1.16667 1.16667 3.77834 1.16667 7.00001C1.16667 10.2217 3.77834 12.8333 7.00001 12.8333Z" stroke="#0A7EC7" stroke-linecap="round" stroke-linejoin="round"/>
<path d="M5.30249 5.25C5.43963 4.86014 5.71033 4.53139 6.06663 4.32199C6.42293 4.11259 6.84185 4.03604 7.24918 4.10591C7.65651 4.17578 8.02597 4.38755 8.29212 4.70372C8.55827 5.01989 8.70394 5.42005 8.70332 5.83333C8.70332 7 6.95332 7.58333 6.95332 7.58333" stroke="#0A7EC7" stroke-linecap="round" stroke-linejoin="round"/>
<path d="M7 9.91667H7.00583" stroke="#0A7EC7" stroke-linecap="round" stroke-linejoin="round"/>
</g>
<defs>
<clipPath id="clip0_3_12400">
<rect width="14" height="14" fill="white"/>
</clipPath>
</defs>
</svg>
