<svg width="20" height="21" viewBox="0 0 20 21" fill="none" xmlns="http://www.w3.org/2000/svg">
<path d="M13.75 8.33333L6.25 4.00833" stroke="#0A7EC7" stroke-linecap="round" stroke-linejoin="round"/>
<path d="M17.5 13.8333V7.16667C17.4997 6.87439 17.4225 6.58734 17.2763 6.3343C17.13 6.08126 16.9198 5.87114 16.6667 5.725L10.8333 2.39167C10.58 2.24539 10.2926 2.16838 10 2.16838C9.70744 2.16838 9.42003 2.24539 9.16667 2.39167L3.33333 5.725C3.08022 5.87114 2.86998 6.08126 2.72372 6.3343C2.57745 6.58734 2.5003 6.87439 2.5 7.16667V13.8333C2.5003 14.1256 2.57745 14.4127 2.72372 14.6657C2.86998 14.9187 3.08022 15.1289 3.33333 15.275L9.16667 18.6083C9.42003 18.7546 9.70744 18.8316 10 18.8316C10.2926 18.8316 10.58 18.7546 10.8333 18.6083L16.6667 15.275C16.9198 15.1289 17.13 14.9187 17.2763 14.6657C17.4225 14.4127 17.4997 14.1256 17.5 13.8333Z" stroke="#0A7EC7" stroke-linecap="round" stroke-linejoin="round"/>
<path d="M2.72498 6.3L9.99998 10.5083L17.275 6.3" stroke="#0A7EC7" stroke-linecap="round" stroke-linejoin="round"/>
<path d="M10 18.9V10.5" stroke="#0A7EC7" stroke-linecap="round" stroke-linejoin="round"/>
</svg>
