<svg width="20" height="21" viewBox="0 0 20 21" fill="none" xmlns="http://www.w3.org/2000/svg">
<path d="M17.6751 13.7417C17.1449 14.9954 16.3157 16.1002 15.2599 16.9594C14.2042 17.8187 12.954 18.4062 11.6187 18.6707C10.2835 18.9351 8.90374 18.8685 7.60017 18.4765C6.29661 18.0845 5.10891 17.3792 4.1409 16.4222C3.1729 15.4652 2.45406 14.2856 2.04725 12.9866C1.64043 11.6876 1.55802 10.3087 1.80722 8.97053C2.05641 7.63232 2.62963 6.37553 3.47676 5.31003C4.32388 4.24453 5.41912 3.40277 6.66672 2.85834" stroke="#0A7EC7" stroke-linecap="round" stroke-linejoin="round"/>
<path d="M18.3333 10.5C18.3333 9.40566 18.1178 8.32202 17.699 7.31098C17.2802 6.29993 16.6664 5.38127 15.8926 4.60745C15.1187 3.83363 14.2001 3.2198 13.189 2.80101C12.178 2.38222 11.0943 2.16667 10 2.16667V10.5H18.3333Z" stroke="#0A7EC7" stroke-linecap="round" stroke-linejoin="round"/>
</svg>
