<svg width="20" height="21" viewBox="0 0 20 21" fill="none" xmlns="http://www.w3.org/2000/svg">
<path d="M12.25 5.75C12.0973 5.90578 12.0118 6.11521 12.0118 6.33334C12.0118 6.55146 12.0973 6.7609 12.25 6.91667L13.5833 8.25C13.7391 8.40269 13.9485 8.48822 14.1667 8.48822C14.3848 8.48822 14.5942 8.40269 14.75 8.25L17.8917 5.10834C18.3107 6.03433 18.4376 7.06603 18.2554 8.06596C18.0732 9.06588 17.5906 9.98654 16.8719 10.7052C16.1532 11.4239 15.2325 11.9065 14.2326 12.0887C13.2327 12.2709 12.201 12.144 11.275 11.725L5.51667 17.4833C5.18515 17.8149 4.73551 18.0011 4.26667 18.0011C3.79783 18.0011 3.34819 17.8149 3.01667 17.4833C2.68515 17.1518 2.4989 16.7022 2.4989 16.2333C2.4989 15.7645 2.68515 15.3149 3.01667 14.9833L8.775 9.225C8.35597 8.29901 8.2291 7.26731 8.41129 6.26738C8.59348 5.26746 9.07607 4.3468 9.79477 3.6281C10.5135 2.90941 11.4341 2.42681 12.434 2.24462C13.434 2.06243 14.4657 2.18931 15.3917 2.60834L12.2583 5.74167L12.25 5.75Z" stroke="#0A7EC7" stroke-linecap="round" stroke-linejoin="round"/>
</svg>
